<svg xmlns="http://www.w3.org/2000/svg" xmlns:xlink="http://www.w3.org/1999/xlink" width="500" height="500" viewBox="0 0 375 374.999991" version="1.2"><defs><symbol overflow="visible" id="c"><path d="M29.516-14.031c-.625 2.125-.938 4.07-.938 5.828 0 1.855.64 3.226 1.922 4.11 1.281.874 3.55 1.359 6.813 1.452L36.78 0c-5.293-.258-12.086-.39-20.375-.39C6.438-.39-.883-.259-5.562 0l.53-2.64c3.18-.176 5.555-.532 7.141-1.063C3.703-4.234 4.961-5.25 5.891-6.75c.925-1.5 1.828-3.926 2.703-7.281l17.468-65.625c.625-2.914.938-4.989.938-6.219 0-1.77-.64-3.05-1.922-3.844-1.281-.789-3.555-1.234-6.812-1.328l.656-2.64c4.5.261 11.515.39 21.047.39 4.226 0 7.398-.039 9.515-.125l9.797-.14c20.727 0 31.094 6.664 31.094 19.984 0 6.887-2.293 13.062-6.875 18.531-4.586 5.469-11.027 9.75-19.328 12.844-8.293 3.086-17.774 4.625-28.438 4.625zm7-26.203h.53c7.321 0 13.321-1.758 18-5.282 4.677-3.53 8.052-8.05 10.126-13.562 2.07-5.52 3.11-11.367 3.11-17.547 0-4.844-1.016-8.457-3.048-10.844-2.03-2.383-5.293-3.578-9.78-3.578-1.856 0-3.227.313-4.11.938-.887.617-1.617 1.632-2.188 3.046-.574 1.407-1.304 3.876-2.187 7.407zm0 0"/></symbol><symbol overflow="visible" id="d"><path d="M-.125-6.094c0-3.52 1.234-6.472 3.703-8.86 2.469-2.382 5.508-3.577 9.125-3.577 2.82 0 5.024.71 6.61 2.125 1.593 1.406 2.39 3.39 2.39 5.953 0 3.18-1.305 6.027-3.906 8.547C15.19.602 12.172 1.859 8.734 1.859c-2.824 0-5.007-.703-6.546-2.109C.645-1.664-.126-3.613-.126-6.094zm0 0"/></symbol><symbol overflow="visible" id="e"><path d="M110.89-99.781c3.883 0 6.954 1.062 9.204 3.187 2.25 2.117 3.375 4.805 3.375 8.063 0 3.449-1.153 6.32-3.453 8.61-2.293 2.292-5.157 3.437-8.594 3.437-2.918 0-5.168-.727-6.75-2.188-1.586-1.457-2.375-3.375-2.375-5.75 0-2.914.922-5.473 2.766-7.672 1.851-2.207 4.238-3.754 7.156-4.64-.356-.352-1.063-.532-2.125-.532-4.23 0-7.934 2.34-11.11 7.016-3.886 5.824-7.949 16.078-12.187 30.766C82.567-44.797 77.766-24.75 72.39.656h-2.922L36.656-71.188c-3.793 18.7-7.386 34.446-10.781 47.235-3.398 12.793-6.684 21.262-9.86 25.406-1.949 2.563-4.007 4.594-6.171 6.094-2.156 1.5-4.82 2.25-7.985 2.25-3.882 0-6.93-1.063-9.14-3.188-2.207-2.117-3.313-4.804-3.313-8.062 0-3.438 1.125-6.3 3.375-8.594 2.25-2.3 5.14-3.453 8.672-3.453 2.82 0 5.05.73 6.688 2.188 1.632 1.46 2.453 3.374 2.453 5.75 0 2.917-.953 5.476-2.86 7.671C5.836 4.316 3.438 5.863.531 6.75c.438.352 1.188.531 2.25.531 4.5 0 8.203-2.386 11.11-7.156 3.27-5.195 6.664-14.5 10.187-27.906 3.531-13.414 7.367-30.707 11.516-51.875.531-2.563.797-4.547.797-5.953 0-2.125-.711-3.516-2.125-4.172-1.407-.664-4.094-1.086-8.063-1.266l.656-2.64c2.82.261 6.75.39 11.782.39 4.062 0 7.632-.129 10.718-.39L76.75-30.97c7.406-31.664 14.02-51.781 19.844-60.343 3.883-5.645 8.648-8.47 14.297-8.47zm0 0"/></symbol><clipPath id="a"><path d="M24.223 24.223h326.554V350.78H24.223zm0 0"/></clipPath><clipPath id="b"><path d="M350.777 187.5c0 90.176-73.101 163.277-163.277 163.277-90.176 0-163.277-73.101-163.277-163.277 0-90.176 73.101-163.277 163.277-163.277 90.176 0 163.277 73.101 163.277 163.277zm0 0"/></clipPath></defs><g clip-path="url(#a)"><g clip-path="url(#b)"><path d="M24.223 24.223h326.554V350.78H24.223zm0 0" fill="#0f8afd"/></g></g><use xlink:href="#c" x="73.901" y="220.726" fill="#f6f2e9"/><use xlink:href="#d" x="157.004" y="220.726" fill="#f6f2e9"/><use xlink:href="#e" x="191.939" y="220.726" fill="#f6f2e9"/><use xlink:href="#f" x="188.051" y="282.21"/></svg>